#!OML:ASF H:\Swim 2\Project 1\Capture day 1\Session 1\male.ASF
:FULLY-SPECIFIED
:DEGREES
1462
root 1.59035 13.7349 7.21648 81.1965 -3.5665 -1.2995
lowerback -18.5835 0.419775 -3.4247
upperback -11.7521 1.0986 5.1222
thorax -2.50006 0.9615 7.62788
lowerneck -27.808 -1.04208 -5.27644
upperneck 35.6897 0.729606 0.749616
head 17.9793 -0.346626 1.42906
rclavicle -2.3059e-014 -5.00937e-014
rhumerus 47.7596 22.9527 -25.4361
rradius 113.316
rwrist -66.1291
rhand -43.5808 -20.2657
rfingers 7.12502
rthumb -16.4176 -49.591
lclavicle -2.3059e-014 -5.00937e-014
lhumerus 45.9791 -23.3702 38.9448
lradius 117.474
lwrist 52.5943
lhand -50.8177 18.7068
lfingers 7.12502
lthumb -23.3738 47.3075
rfemur -25.8025 -32.4334 -23.1537
rtibia 105.786
rfoot -7.10844 12.4331
rtoes 6.00097
lfemur -29.6941 18.4915 9.9464
ltibia 108.565
lfoot -7.96972 8.99288
ltoes 30.9969
1463
root 1.58362 13.7297 7.18627 81.31 -3.70731 -1.53244
lowerback -18.3469 0.440527 -3.3675
upperback -11.554 1.10694 5.08048
thorax -2.39839 0.950608 7.54308
lowerneck -28.0621 -0.964524 -5.32042
upperneck 36.2731 0.902548 0.736667
head 18.3607 -0.304469 1.47984
rclavicle -2.06736e-014 -1.27222e-014
rhumerus 48.6356 22.3733 -25.2633
rradius 112.01
rwrist -67.864
rhand -43.5615 -21.1447
rfingers 7.12502
rthumb -16.399 -50.4715
lclavicle -2.06736e-014 -1.27222e-014
lhumerus 46.1003 -22.7753 38.9123
lradius 116.327
lwrist 54.0412
lhand -50.8327 19.8566
lfingers 7.12502
lthumb -23.3881 48.4555
rfemur -26.2255 -31.0313 -21.4401
rtibia 103.349
rfoot -6.86149 10.1314
rtoes 6.71577
lfemur -28.8281 18.0929 8.72624
ltibia 105.139
lfoot -7.48815 11.9717
ltoes 32.6973
1464
root 1.57709 13.721 7.15813 81.4806 -3.81459 -1.72268
lowerback -18.1423 0.449494 -3.29629
upperback -11.3857 1.09896 5.04321
thorax -2.31104 0.932214 7.4535
lowerneck -28.3286 -0.88589 -5.34205
upperneck 36.8377 1.09687 0.659096
head 18.7442 -0.26205 1.50198
rclavicle 1.03368e-014 1.82882e-014
rhumerus 49.5081 21.8496 -25.0141
rradius 110.599
rwrist -69.4163
rhand -43.4464 -22.0195
rfingers 7.12502
rthumb -16.2882 -51.3554
lclavicle 1.03368e-014 1.82882e-014
lhumerus 46.1749 -22.2264 38.9173
lradius 115.221
lwrist 55.8766
lhand -50.8744 20.6082
lfingers 7.12502
lthumb -23.4282 49.2019
rfemur -26.5836 -29.519 -19.7624
rtibia 100.778
rfoot -6.5791 7.90471
rtoes 7.36284
lfemur -28.0257 17.6341 7.57511
ltibia 101.574
lfoot -7.28733 14.9194
ltoes 34.2916
1465
root 1.57106 13.7086 7.13278 81.7305 -3.89588 -1.86093
lowerback -18.0048 0.443616 -3.2236
upperback -11.2506 1.07278 5.01093
thorax -2.22394 0.905805 7.36777
lowerneck -28.5788 -0.811276 -5.37675
upperneck 37.3485 1.30654 0.550293
head 19.1016 -0.220537 1.5146
rclavicle 4.21423e-014 1.59028e-014
rhumerus 50.3677 21.3918 -24.6705
rradius 109.105
rwrist -70.7415
rhand -43.2696 -22.8868
rfingers 7.12502
rthumb -16.1179 -52.2366
lclavicle 4.21423e-014 1.59028e-014
lhumerus 46.2094 -21.727 38.9705
lradius 114.123
lwrist 57.9841
lhand -50.9106 21.0359
lfingers 7.12502
lthumb -23.4629 49.6252
rfemur -26.8845 -27.938 -18.1429
rtibia 98.0655
rfoot -6.25178 5.65427
rtoes 7.67587
lfemur -27.3087 17.0993 6.47354
ltibia 97.8727
lfoot -7.34132 17.7746
ltoes 35.8281
1466
root 1.56548 13.6932 7.10919 82.076 -3.96503 -1.95673
lowerback -17.9486 0.425846 -3.16036
upperback -11.1551 1.03419 4.98029
thorax -2.13783 0.875039 7.28976
lowerneck -28.7711 -0.747289 -5.44039
upperneck 37.7656 1.51564 0.433111
head 19.3958 -0.183186 1.52639
rclavicle 1.51076e-014 4.77083e-015
rhumerus 51.2069 21.0057 -24.24
rradius 107.544
rwrist -71.8664
rhand -43.0508 -23.7355
rfingers 7.12502
rthumb -15.9073 -53.1022
lclavicle 1.51076e-014 4.77083e-015
lhumerus 46.2191 -21.2733 39.0667
lradius 112.993
lwrist 60.221
lhand -50.8949 21.2269
lfingers 7.12502
lthumb -23.4477 49.8182
rfemur -27.1564 -26.3352 -16.6136
rtibia 95.2251
rfoot -5.71038 3.50415
rtoes 8.09596
lfemur -26.6834 16.4901 5.41367
ltibia 94.0438
lfoot -7.59962 20.4823
ltoes 37.2432
1467
root 1.56048 13.6752 7.08682 82.5198 -4.01924 -2.01017
lowerback -17.9827 0.394273 -3.10297
upperback -11.0907 0.979634 4.95261
thorax -2.03792 0.837156 7.21835
lowerneck -28.8844 -0.694891 -5.56286
upperneck 38.0438 1.71062 0.361488
head 19.5888 -0.149273 1.56468
rclavicle -5.24792e-014 -7.23576e-014
rhumerus 52.0348 20.6825 -23.7454
rradius 105.929
rwrist -72.8629
rhand -42.7917 -24.5071
rfingers 7.12502
rthumb -15.6578 -53.8935
lclavicle -5.24792e-014 -7.23576e-014
lhumerus 46.2269 -20.8537 39.188
lradius 111.788
lwrist 62.4042
lhand -50.7913 21.3419
lfingers 7.12502
lthumb -23.3484 49.9458
rfemur -27.4107 -24.7263 -15.1814
rtibia 92.2677
rfoot -4.87359 1.46249
rtoes 8.70962
lfemur -26.1547 15.7884 4.40818
ltibia 90.1067
lfoot -8.02185 22.9665
ltoes 38.5892
1468
root 1.55632 13.656 7.06401 83.0369 -4.0919 -2.01176
lowerback -18.0897 0.342683 -3.08855
upperback -11.0414 0.905618 4.91942
thorax -1.91583 0.791322 7.16466
lowerneck -28.9011 -0.655223 -5.75175
upperneck 38.1562 1.87701 0.363353
head 19.6544 -0.119298 1.64052
rclavicle -1.27222e-014 -1.35174e-014
rhumerus 52.9069 20.3471 -23.1747
rradius 104.257
rwrist -73.8953
rhand -42.5326 -25.1684
rfingers 7.12502
rthumb -15.4082 -54.5742
lclavicle -1.27222e-014 -1.35174e-014
lhumerus 46.2791 -20.4323 39.2976
lradius 110.477
lwrist 64.4244
lhand -50.6015 21.5342
lfingers 7.12502
lthumb -23.1663 50.1612
rfemur -27.6354 -23.1833 -13.9339
rtibia 89.212
rfoot -3.69083 -0.410225
rtoes 9.64596
lfemur -25.7104 14.9553 3.42687
ltibia 86.0815
lfoot -8.52053 25.25
ltoes 39.6624
1469
root 1.55287 13.6363 7.03988 83.6346 -4.16925 -1.97823
lowerback -18.2649 0.275435 -3.09588
upperback -11.0087 0.814907 4.88318
thorax -1.77542 0.737932 7.119
lowerneck -28.8408 -0.622338 -6.01187
upperneck 38.1272 2.0174 0.459725
head 19.6098 -0.0898931 1.76583
rclavicle -7.15625e-015 1.19271e-015
rhumerus 53.8207 20.0071 -22.5579
rradius 102.55
rwrist -75.0115
rhand -42.303 -25.7291
rfingers 7.12502
rthumb -15.187 -55.1518
lclavicle -7.15625e-015 1.19271e-015
lhumerus 46.3792 -20.0297 39.3735
lradius 109.062
lwrist 66.1714
lhand -50.3493 21.8397
lfingers 7.12502
lthumb -22.9243 50.4969
rfemur -27.8676 -21.6513 -12.8133
rtibia 86.0641
rfoot -2.19519 -2.21308
rtoes 10.7272
lfemur -25.3521 13.9959 2.49967
ltibia 81.9905
lfoot -8.93487 27.2808
ltoes 40.3653
1470
root 1.54993 13.6164 7.01485 84.3071 -4.24095 -1.92369
lowerback -18.4935 0.197648 -3.10565
upperback -10.9948 0.711471 4.845
thorax -1.62689 0.678314 7.07134
lowerneck -28.7319 -0.586542 -6.30983
upperneck 38.0004 2.1423 0.626025
head 19.4898 -0.056877 1.92535
rclavicle -3.18055e-015 -1.03368e-014
rhumerus 54.7783 19.6649 -21.9126
rradius 100.824
rwrist -76.2325
rhand -42.1377 -26.1691
rfingers 7.12502
rthumb -15.0278 -55.6037
lclavicle -3.18055e-015 -1.03368e-014
lhumerus 46.5364 -19.6363 39.3919
lradius 107.55
lwrist 67.59
lhand -50.0739 22.2516
lfingers 7.12502
lthumb -22.66 50.9413
rfemur -28.1147 -20.1232 -11.8002
rtibia 82.8205
rfoot -0.416535 -3.95737
rtoes 11.8979
lfemur -25.0685 12.9123 1.65556
ltibia 77.8579
lfoot -9.09646 28.9995
ltoes 40.6436
